<svg width="365" height="113" viewBox="0 0 365 113" fill="none" xmlns="http://www.w3.org/2000/svg">
<path d="M133.216 58.48C132 58.48 130.848 58.416 129.76 58.288C128.672 58.16 127.648 57.952 126.688 57.664C125.76 57.376 124.848 57.024 123.952 56.608V52.528C125.104 53.2 126.528 53.776 128.224 54.256C129.952 54.704 131.696 54.928 133.456 54.928C135.056 54.928 136.416 54.736 137.536 54.352C138.688 53.968 139.632 53.44 140.368 52.768C141.104 52.096 141.648 51.328 142 50.464C142.352 49.6 142.528 48.688 142.528 47.728C142.528 45.744 141.872 44.304 140.56 43.408C139.248 42.512 137.392 42.064 134.992 42.064H130.096L130.816 38.56H135.376C136.944 38.56 138.432 38.336 139.84 37.888C141.28 37.408 142.464 36.656 143.392 35.632C144.32 34.608 144.784 33.216 144.784 31.456C144.784 29.856 144.304 28.688 143.344 27.952C142.384 27.184 141.104 26.8 139.504 26.8C138.064 26.8 136.64 27.056 135.232 27.568C133.856 28.08 132.512 28.752 131.2 29.584L129.472 26.512C131.104 25.424 132.768 24.608 134.464 24.064C136.192 23.52 138.16 23.248 140.368 23.248C142.224 23.248 143.808 23.568 145.12 24.208C146.432 24.816 147.44 25.696 148.144 26.848C148.848 28 149.2 29.344 149.2 30.88C149.2 32.48 148.832 33.92 148.096 35.2C147.392 36.48 146.384 37.552 145.072 38.416C143.76 39.28 142.192 39.904 140.368 40.288V40.384C141.648 40.576 142.784 40.992 143.776 41.632C144.8 42.24 145.6 43.072 146.176 44.128C146.752 45.152 147.04 46.416 147.04 47.92C147.04 49.36 146.752 50.72 146.176 52C145.6 53.28 144.736 54.4 143.584 55.36C142.432 56.32 140.992 57.088 139.264 57.664C137.536 58.208 135.52 58.48 133.216 58.48ZM172.1 58.48C170.82 58.48 169.684 58.24 168.692 57.76C167.732 57.28 166.98 56.56 166.436 55.6C165.924 54.64 165.668 53.472 165.668 52.096C165.668 51.36 165.716 50.672 165.812 50.032C165.94 49.36 166.068 48.672 166.196 47.968L169.556 32.272H173.828L170.372 48.448C170.244 49.152 170.132 49.76 170.036 50.272C169.972 50.784 169.94 51.248 169.94 51.664C169.94 52.688 170.196 53.504 170.708 54.112C171.252 54.688 172.116 54.976 173.3 54.976C174.388 54.976 175.556 54.592 176.804 53.824C178.084 53.056 179.268 51.824 180.356 50.128C181.444 48.432 182.292 46.176 182.9 43.36L185.252 32.272H189.428L183.956 58H180.5L181.028 53.248H180.788C180.18 54.016 179.46 54.816 178.628 55.648C177.828 56.448 176.884 57.12 175.796 57.664C174.74 58.208 173.508 58.48 172.1 58.48ZM205.417 58L210.841 32.32H216.313L219.001 52.72H219.097L230.377 32.32H236.281L230.905 58H227.065L230.185 43.264C230.473 42.048 230.761 40.832 231.049 39.616C231.369 38.4 231.657 37.28 231.913 36.256H231.817L219.721 58H216.409L213.481 36.304H213.337C213.209 37.2 213.033 38.304 212.809 39.616C212.585 40.896 212.345 42.144 212.089 43.36L209.113 58H205.417ZM252.131 58L257.603 32.272H261.779L259.571 42.976H271.668L273.971 32.272H278.196L272.772 58H268.499L270.899 46.48H258.803L256.355 58H252.131ZM293.824 58.288C293.408 58.288 293.04 58.256 292.72 58.192C292.368 58.128 292.08 58.064 291.856 58V54.64C292.016 54.672 292.208 54.704 292.432 54.736C292.624 54.768 292.832 54.784 293.056 54.784C293.632 54.784 294.112 54.672 294.496 54.448C294.912 54.192 295.312 53.776 295.696 53.2C296.08 52.624 296.512 51.856 296.992 50.896C297.312 50.224 297.664 49.6 298.048 49.024C298.464 48.416 298.928 47.888 299.44 47.44C299.984 46.96 300.624 46.592 301.36 46.336C300.336 46.016 299.488 45.568 298.816 44.992C298.176 44.416 297.696 43.744 297.376 42.976C297.056 42.176 296.896 41.328 296.896 40.432C296.896 39.28 297.104 38.208 297.52 37.216C297.968 36.224 298.608 35.36 299.44 34.624C300.304 33.888 301.36 33.312 302.608 32.896C303.888 32.48 305.376 32.272 307.072 32.272H316.864L311.44 58H307.264L309.424 47.872H306.304C305.312 47.872 304.496 48.048 303.856 48.4C303.216 48.72 302.672 49.2 302.224 49.84C301.776 50.48 301.312 51.296 300.832 52.288C300.224 53.568 299.616 54.656 299.008 55.552C298.432 56.448 297.744 57.136 296.944 57.616C296.144 58.064 295.104 58.288 293.824 58.288ZM305.968 44.272H310.192L311.968 35.872H306.4C305.248 35.872 304.272 36.064 303.472 36.448C302.704 36.8 302.112 37.312 301.696 37.984C301.28 38.656 301.072 39.472 301.072 40.432C301.072 41.872 301.536 42.88 302.464 43.456C303.424 44 304.592 44.272 305.968 44.272ZM332.571 58.288C332.155 58.288 331.787 58.256 331.466 58.192C331.114 58.128 330.826 58.064 330.602 58V54.64C330.762 54.672 330.954 54.704 331.178 54.736C331.37 54.768 331.579 54.784 331.803 54.784C332.379 54.784 332.859 54.672 333.243 54.448C333.659 54.192 334.059 53.776 334.443 53.2C334.827 52.624 335.259 51.856 335.739 50.896C336.059 50.224 336.411 49.6 336.795 49.024C337.211 48.416 337.675 47.888 338.187 47.44C338.731 46.96 339.371 46.592 340.107 46.336C339.083 46.016 338.235 45.568 337.562 44.992C336.923 44.416 336.443 43.744 336.123 42.976C335.803 42.176 335.643 41.328 335.643 40.432C335.643 39.28 335.851 38.208 336.267 37.216C336.715 36.224 337.355 35.36 338.187 34.624C339.051 33.888 340.107 33.312 341.355 32.896C342.635 32.48 344.123 32.272 345.819 32.272H355.611L350.187 58H346.011L348.171 47.872H345.051C344.059 47.872 343.243 48.048 342.603 48.4C341.963 48.72 341.419 49.2 340.971 49.84C340.523 50.48 340.059 51.296 339.579 52.288C338.971 53.568 338.363 54.656 337.755 55.552C337.179 56.448 336.491 57.136 335.691 57.616C334.891 58.064 333.851 58.288 332.571 58.288ZM344.715 44.272H348.939L350.715 35.872H345.147C343.995 35.872 343.019 36.064 342.219 36.448C341.451 36.8 340.859 37.312 340.443 37.984C340.027 38.656 339.819 39.472 339.819 40.432C339.819 41.872 340.283 42.88 341.211 43.456C342.171 44 343.339 44.272 344.715 44.272Z" fill="#1669E4"/>
<path d="M125.152 101.409L130.672 75.5368H134.416L133.888 80.2888H133.936C134.544 79.4888 135.248 78.6888 136.048 77.8888C136.88 77.0888 137.84 76.4168 138.928 75.8728C140.016 75.3288 141.248 75.0568 142.624 75.0568C144 75.0568 145.184 75.3128 146.176 75.8248C147.168 76.3368 147.92 77.0728 148.432 78.0328C148.976 78.9928 149.248 80.1608 149.248 81.5368C149.248 82.2728 149.184 83.0248 149.056 83.7928C148.96 84.5608 148.848 85.2328 148.72 85.8088L145.312 101.409H140.8L144.256 85.2328C144.416 84.4968 144.528 83.8888 144.592 83.4088C144.688 82.8968 144.736 82.4168 144.736 81.9688C144.736 80.9448 144.464 80.1768 143.92 79.6648C143.376 79.1528 142.56 78.8968 141.472 78.8968C140.416 78.8968 139.264 79.2648 138.016 80.0008C136.8 80.7368 135.648 81.9368 134.56 83.6008C133.504 85.2648 132.672 87.5048 132.064 90.3208L129.664 101.409H125.152ZM150.261 112.929L158.133 75.6808H161.589L161.013 80.4808H161.205C161.973 79.5208 162.789 78.6568 163.653 77.8888C164.517 77.0888 165.461 76.4488 166.485 75.9688C167.509 75.4888 168.613 75.2488 169.797 75.2488C171.173 75.2488 172.373 75.5848 173.397 76.2568C174.453 76.8968 175.269 77.8728 175.845 79.1848C176.453 80.4648 176.757 82.0808 176.757 84.0328C176.757 85.9208 176.565 87.7448 176.181 89.5048C175.829 91.2648 175.285 92.8968 174.549 94.4008C173.845 95.8728 172.981 97.1848 171.957 98.3368C170.965 99.4568 169.813 100.337 168.501 100.977C167.189 101.585 165.765 101.889 164.229 101.889C163.077 101.889 162.069 101.681 161.205 101.265C160.373 100.849 159.669 100.305 159.093 99.6328C158.517 98.9608 158.037 98.2408 157.653 97.4728H157.413C157.381 97.9848 157.301 98.7048 157.173 99.6328C157.045 100.529 156.917 101.265 156.789 101.841L154.437 112.929H150.261ZM163.893 98.3848C164.917 98.3848 165.861 98.1288 166.725 97.6168C167.621 97.0728 168.421 96.3368 169.125 95.4088C169.829 94.4488 170.421 93.3608 170.901 92.1448C171.413 90.8968 171.797 89.5848 172.053 88.2088C172.309 86.8008 172.437 85.3768 172.437 83.9368C172.437 82.2088 172.085 80.9128 171.381 80.0488C170.709 79.1848 169.701 78.7528 168.357 78.7528C167.653 78.7528 166.933 78.9288 166.197 79.2808C165.461 79.6328 164.741 80.1448 164.037 80.8168C163.333 81.4568 162.677 82.2248 162.069 83.1208C161.461 84.0168 160.917 85.0088 160.437 86.0968C159.989 87.1528 159.637 88.2888 159.381 89.5048C159.125 90.6888 158.997 91.9208 158.997 93.2008C158.997 94.7368 159.397 95.9848 160.197 96.9448C160.997 97.9048 162.229 98.3848 163.893 98.3848ZM187.706 101.889C186.426 101.889 185.29 101.649 184.298 101.169C183.338 100.689 182.586 99.9688 182.042 99.0088C181.53 98.0488 181.274 96.8808 181.274 95.5048C181.274 94.7688 181.322 94.0808 181.418 93.4408C181.546 92.7688 181.674 92.0808 181.802 91.3768L185.162 75.6808H189.434L185.978 91.8568C185.85 92.5608 185.738 93.1688 185.642 93.6808C185.578 94.1928 185.546 94.6568 185.546 95.0728C185.546 96.0968 185.802 96.9128 186.314 97.5208C186.858 98.0968 187.722 98.3848 188.906 98.3848C189.994 98.3848 191.162 98.0008 192.41 97.2328C193.69 96.4648 194.874 95.2328 195.962 93.5368C197.05 91.8408 197.898 89.5848 198.506 86.7688L200.858 75.6808H205.034L199.562 101.409H196.106L196.634 96.6568H196.394C195.786 97.4248 195.066 98.2248 194.234 99.0568C193.434 99.8568 192.49 100.529 191.402 101.073C190.346 101.617 189.114 101.889 187.706 101.889ZM207.295 101.409L212.767 75.6808H216.943L214.735 86.3848H226.831L229.135 75.6808H233.359L227.935 101.409H223.663L226.063 89.8888H213.967L211.519 101.409H207.295ZM255.083 101.745C254.443 101.553 253.915 101.265 253.499 100.881C253.083 100.497 252.779 99.9688 252.587 99.2968C252.395 98.5928 252.299 97.7448 252.299 96.7528H252.107C251.499 97.5848 250.779 98.4008 249.947 99.2008C249.147 100.001 248.203 100.657 247.115 101.169C246.027 101.649 244.795 101.889 243.419 101.889C242.107 101.889 240.955 101.649 239.963 101.169C239.003 100.689 238.251 99.9688 237.707 99.0088C237.195 98.0488 236.939 96.8808 236.939 95.5048C236.939 94.7688 236.987 94.0808 237.083 93.4408C237.211 92.7688 237.339 92.0808 237.467 91.3768L240.827 75.6808H245.099L241.643 91.8568C241.515 92.5608 241.403 93.1688 241.307 93.6808C241.243 94.1928 241.211 94.6568 241.211 95.0728C241.211 96.0968 241.467 96.9128 241.979 97.5208C242.523 98.0968 243.387 98.3848 244.571 98.3848C245.659 98.3848 246.827 98.0008 248.075 97.2328C249.355 96.4648 250.539 95.2328 251.627 93.5368C252.715 91.8408 253.563 89.5848 254.171 86.7688L256.523 75.6808H260.699L256.859 93.8248C256.731 94.4328 256.635 94.9608 256.571 95.4088C256.507 95.8568 256.475 96.2728 256.475 96.6568C256.475 97.2008 256.619 97.6488 256.907 98.0008C257.227 98.3208 257.691 98.4808 258.299 98.4808C258.555 98.4808 258.843 98.4488 259.163 98.3848C259.483 98.3208 259.803 98.2408 260.123 98.1448L257.435 110.337H253.163L255.083 101.745ZM274.075 101.889C272.091 101.889 270.395 101.505 268.987 100.737C267.611 99.9368 266.555 98.8168 265.819 97.3768C265.115 95.9048 264.763 94.1768 264.763 92.1928C264.763 90.1448 265.051 88.1288 265.627 86.1448C266.235 84.1288 267.099 82.3048 268.219 80.6728C269.339 79.0088 270.683 77.6808 272.251 76.6888C273.851 75.6968 275.643 75.2008 277.627 75.2008C280.059 75.2008 281.883 75.7288 283.099 76.7848C284.347 77.8408 284.971 79.3128 284.971 81.2008C284.971 82.4488 284.683 83.6328 284.107 84.7528C283.531 85.8408 282.635 86.8008 281.419 87.6328C280.203 88.4648 278.651 89.1208 276.763 89.6008C274.875 90.0488 272.603 90.2728 269.947 90.2728H269.131C269.099 90.5608 269.067 90.8648 269.035 91.1848C269.035 91.5048 269.035 91.7928 269.035 92.0488C269.035 94.0008 269.515 95.5528 270.475 96.7048C271.435 97.8248 272.891 98.3848 274.843 98.3848C276.059 98.3848 277.211 98.2088 278.299 97.8568C279.387 97.5048 280.571 97.0248 281.851 96.4168V100.017C280.635 100.561 279.435 101.009 278.251 101.361C277.099 101.713 275.707 101.889 274.075 101.889ZM270.091 86.8648C272.011 86.8648 273.787 86.7048 275.419 86.3848C277.051 86.0328 278.363 85.4728 279.355 84.7048C280.347 83.9048 280.843 82.8488 280.843 81.5368C280.843 80.7048 280.555 80.0328 279.979 79.5208C279.435 78.9768 278.571 78.7048 277.387 78.7048C276.363 78.7048 275.355 79.0248 274.363 79.6648C273.371 80.3048 272.475 81.2328 271.675 82.4488C270.875 83.6648 270.235 85.1368 269.755 86.8648H270.091ZM297.788 101.889C295.9 101.889 294.236 101.537 292.796 100.833C291.356 100.129 290.236 99.0728 289.436 97.6648C288.636 96.2248 288.236 94.4328 288.236 92.2888C288.236 90.4328 288.428 88.6728 288.812 87.0088C289.228 85.3128 289.82 83.7448 290.588 82.3048C291.356 80.8648 292.284 79.6168 293.372 78.5608C294.46 77.5048 295.692 76.6888 297.068 76.1128C298.476 75.5048 300.012 75.2008 301.676 75.2008C302.796 75.2008 303.916 75.3128 305.036 75.5368C306.156 75.7608 307.164 76.0648 308.06 76.4488L306.86 79.9528C306.22 79.6648 305.452 79.3928 304.556 79.1368C303.692 78.8808 302.748 78.7528 301.724 78.7528C300.636 78.7528 299.612 78.9928 298.652 79.4728C297.724 79.9208 296.876 80.5608 296.108 81.3928C295.372 82.2248 294.732 83.2168 294.188 84.3688C293.676 85.4888 293.276 86.7208 292.988 88.0648C292.7 89.3768 292.556 90.7688 292.556 92.2408C292.556 93.5208 292.78 94.6248 293.228 95.5528C293.676 96.4808 294.316 97.1848 295.148 97.6648C296.012 98.1448 297.036 98.3848 298.22 98.3848C299.34 98.3848 300.396 98.2248 301.388 97.9048C302.412 97.5848 303.42 97.2168 304.412 96.8008V100.353C303.516 100.801 302.508 101.169 301.388 101.457C300.3 101.745 299.1 101.889 297.788 101.889ZM319.058 101.889C317.17 101.889 315.506 101.537 314.066 100.833C312.626 100.129 311.506 99.0728 310.706 97.6648C309.906 96.2248 309.506 94.4328 309.506 92.2888C309.506 90.4328 309.698 88.6728 310.082 87.0088C310.498 85.3128 311.09 83.7448 311.858 82.3048C312.626 80.8648 313.554 79.6168 314.642 78.5608C315.73 77.5048 316.962 76.6888 318.338 76.1128C319.747 75.5048 321.283 75.2008 322.946 75.2008C324.066 75.2008 325.187 75.3128 326.307 75.5368C327.427 75.7608 328.435 76.0648 329.331 76.4488L328.131 79.9528C327.49 79.6648 326.722 79.3928 325.826 79.1368C324.963 78.8808 324.019 78.7528 322.995 78.7528C321.907 78.7528 320.883 78.9928 319.923 79.4728C318.995 79.9208 318.147 80.5608 317.378 81.3928C316.642 82.2248 316.002 83.2168 315.458 84.3688C314.946 85.4888 314.546 86.7208 314.258 88.0648C313.97 89.3768 313.826 90.7688 313.826 92.2408C313.826 93.5208 314.05 94.6248 314.498 95.5528C314.946 96.4808 315.586 97.1848 316.418 97.6648C317.282 98.1448 318.306 98.3848 319.49 98.3848C320.61 98.3848 321.667 98.2248 322.659 97.9048C323.682 97.5848 324.69 97.2168 325.683 96.8008V100.353C324.787 100.801 323.779 101.169 322.659 101.457C321.571 101.745 320.371 101.889 319.058 101.889ZM337.737 101.889C336.361 101.889 335.145 101.569 334.089 100.929C333.065 100.257 332.249 99.2648 331.641 97.9528C331.065 96.6408 330.777 95.0248 330.777 93.1048C330.777 91.1848 330.969 89.3448 331.353 87.5848C331.769 85.7928 332.345 84.1448 333.081 82.6408C333.817 81.1368 334.697 79.8408 335.721 78.7528C336.777 77.6328 337.945 76.7688 339.225 76.1608C340.537 75.5208 341.929 75.2008 343.401 75.2008C344.521 75.2008 345.497 75.4088 346.329 75.8248C347.193 76.2408 347.913 76.7848 348.489 77.4568C349.065 78.1288 349.529 78.8648 349.881 79.6648H350.121L351.657 75.6808H354.873L349.401 101.409H346.041L346.665 96.6568H346.473C345.737 97.5848 344.921 98.4488 344.025 99.2488C343.129 100.049 342.153 100.689 341.097 101.169C340.073 101.649 338.953 101.889 337.737 101.889ZM339.129 98.3848C340.313 98.3848 341.465 97.9528 342.585 97.0888C343.737 96.2248 344.777 95.0568 345.705 93.5848C346.633 92.1128 347.337 90.4648 347.817 88.6408C348.073 87.7128 348.233 86.8648 348.297 86.0968C348.393 85.2968 348.441 84.5608 348.441 83.8888C348.441 82.3848 348.025 81.1528 347.193 80.1928C346.361 79.2328 345.241 78.7528 343.833 78.7528C342.841 78.7528 341.897 79.0088 341.001 79.5208C340.137 80.0328 339.337 80.7528 338.601 81.6808C337.865 82.5768 337.241 83.6328 336.729 84.8488C336.217 86.0648 335.817 87.3928 335.529 88.8328C335.241 90.2408 335.097 91.6968 335.097 93.2008C335.097 94.9288 335.449 96.2248 336.153 97.0888C336.857 97.9528 337.849 98.3848 339.129 98.3848Z" fill="#1669E4"/>
<path d="M52.5 0C45.5572 0 39.9803 5.92066 39.9803 13.2804C39.9803 20.633 45.5572 26.5488 52.5 26.5488C59.4428 26.5488 65.0197 20.633 65.0197 13.2804C65.0197 5.92066 59.4428 0 52.5 0ZM37.7723 30.3881C36.4748 30.3881 35.2456 30.4846 34.1302 30.7261C29.6003 31.692 26.3679 34.4929 24.3193 39.2739C22.1795 44.248 21.5649 51.4919 22.999 60.5226L24.3648 61.9472C27.5061 65.2794 32.5823 67.1145 37.704 67.1145C42.507 67.1145 47.2872 65.4967 50.4513 62.5267V33.9617C45.6711 31.5954 41.3916 30.4605 37.7723 30.3881ZM67.2277 30.3881C63.6084 30.4605 59.3289 31.5954 54.5487 33.9617V62.5267C57.7128 65.4967 62.493 67.1145 67.296 67.1145C72.4177 67.1145 77.4939 65.2794 80.6352 61.9472L82.001 60.5226C83.4351 51.4919 82.8205 44.248 80.6807 39.2739C78.6321 34.4929 75.3997 31.692 70.8698 30.7261C69.7544 30.4846 68.5252 30.3881 67.2277 30.3881ZM19.6301 33.8651H19.5845C12.7556 34.0341 7.01928 36.7868 3.60481 41.6161C0.577319 45.9141 -0.833995 51.9748 0.50903 59.9672C0.713898 61.1987 0.987055 62.5026 1.35126 63.8306C6.92823 68.2977 13.7116 68.3218 19.3114 63.9031C17.2172 53.0856 17.7407 44.1273 20.5861 37.4871C21.1324 36.2073 21.7698 35.0241 22.4982 33.9376C21.8381 33.8893 21.1779 33.8651 20.5406 33.8651H19.6528C19.6301 33.8651 19.6301 33.841 19.6301 33.8651ZM85.3699 33.8651C85.3699 33.841 85.3699 33.8651 85.3472 33.8651H84.4594C83.8221 33.8651 83.1619 33.8893 82.5018 33.9376C83.2302 35.0241 83.8676 36.2073 84.4139 37.4871C87.2593 44.1273 87.7828 53.0856 85.6886 63.9031C91.2656 68.3218 98.0718 68.2977 103.649 63.8306C103.99 62.5026 104.286 61.1987 104.491 59.9672C105.834 51.9748 104.423 45.9141 101.395 41.6161C97.9807 36.7868 92.2444 34.0341 85.4155 33.8651H85.3699ZM24.4558 67.5733C26.0265 73.8755 28.4849 80.8296 31.9449 88.3632H45.2841L50.4513 74.6723V67.9113C46.7182 70.326 42.1883 71.4609 37.704 71.4609C32.992 71.4609 28.2573 70.2052 24.4558 67.5733ZM80.5442 67.5733C76.7427 70.2052 72.008 71.4609 67.296 71.4609C62.8117 71.4609 58.2818 70.326 54.5487 67.9113V74.6723L59.7159 88.3632H73.0551C76.5151 80.8296 78.9735 73.8755 80.5442 67.5733ZM20.3129 68.3943C15.0774 71.7506 8.90862 72.2818 3.35442 69.9396C5.53968 75.4933 8.84033 81.6506 13.484 88.3632H27.3695C24.1827 81.2159 21.8608 74.5516 20.3129 68.3943ZM84.6871 68.3943C83.1392 74.5516 80.8173 81.2159 77.6305 88.3632H91.516C96.1597 81.6506 99.4603 75.4933 101.646 69.9396C96.1141 72.2818 89.9226 71.7506 84.6871 68.3943ZM52.5 80.9262L47.4693 94.3032L52.5 105L57.5307 94.3032L52.5 80.9262ZM15.0615 92.7096L17.6724 103.817H25.7078L20.4723 98.2632L25.7078 92.7096H15.0615ZM35.6098 92.7096L39.3884 96.7178L40.8225 98.2632L35.587 103.817H47.3555L42.9623 94.4964L43.6451 92.7096H35.6098ZM61.3549 92.7096L61.6963 93.603L62.0377 94.4964L57.6445 103.817H69.413L64.1775 98.2632L69.413 92.7096H61.3549ZM79.315 92.7096L83.0936 96.7178L84.5277 98.2632L79.2922 103.817H87.3276L89.9453 92.7096H79.315ZM30.6474 93.603L26.2541 98.2632L30.6474 102.923L35.0407 98.2632L30.6474 93.603ZM74.3526 93.603L69.9593 98.2632L74.3526 102.923L78.7459 98.2632L74.3526 93.603Z" fill="#1669E4"/>
</svg>
