<svg width="341" height="94" viewBox="0 0 341 94" fill="none" xmlns="http://www.w3.org/2000/svg">
<path d="M104.191 36.4C103.178 36.4 102.218 36.3467 101.311 36.24C100.404 36.1333 99.5511 35.96 98.7511 35.72C97.9778 35.48 97.2178 35.1867 96.4711 34.84V31.44C97.4311 32 98.6178 32.48 100.031 32.88C101.471 33.2533 102.924 33.44 104.391 33.44C105.724 33.44 106.858 33.28 107.791 32.96C108.751 32.64 109.538 32.2 110.151 31.64C110.764 31.08 111.218 30.44 111.511 29.72C111.804 29 111.951 28.24 111.951 27.44C111.951 25.7867 111.404 24.5867 110.311 23.84C109.218 23.0933 107.671 22.72 105.671 22.72H101.591L102.191 19.8H105.991C107.298 19.8 108.538 19.6133 109.711 19.24C110.911 18.84 111.898 18.2133 112.671 17.36C113.444 16.5067 113.831 15.3467 113.831 13.88C113.831 12.5467 113.431 11.5733 112.631 10.96C111.831 10.32 110.764 10 109.431 10C108.231 10 107.044 10.2133 105.871 10.64C104.724 11.0667 103.604 11.6267 102.511 12.32L101.071 9.76C102.431 8.85333 103.818 8.17333 105.231 7.72C106.671 7.26667 108.311 7.04 110.151 7.04C111.698 7.04 113.018 7.30666 114.111 7.84C115.204 8.34666 116.044 9.08 116.631 10.04C117.218 11 117.511 12.12 117.511 13.4C117.511 14.7333 117.204 15.9333 116.591 17C116.004 18.0667 115.164 18.96 114.071 19.68C112.978 20.4 111.671 20.92 110.151 21.24V21.32C111.218 21.48 112.164 21.8267 112.991 22.36C113.844 22.8667 114.511 23.56 114.991 24.44C115.471 25.2933 115.711 26.3467 115.711 27.6C115.711 28.8 115.471 29.9333 114.991 31C114.511 32.0667 113.791 33 112.831 33.8C111.871 34.6 110.671 35.24 109.231 35.72C107.791 36.1733 106.111 36.4 104.191 36.4ZM136.595 36.4C135.528 36.4 134.581 36.2 133.755 35.8C132.955 35.4 132.328 34.8 131.875 34C131.448 33.2 131.235 32.2267 131.235 31.08C131.235 30.4667 131.275 29.8933 131.355 29.36C131.461 28.8 131.568 28.2267 131.675 27.64L134.475 14.56H138.035L135.155 28.04C135.048 28.6267 134.955 29.1333 134.875 29.56C134.821 29.9867 134.795 30.3733 134.795 30.72C134.795 31.5733 135.008 32.2533 135.435 32.76C135.888 33.24 136.608 33.48 137.595 33.48C138.501 33.48 139.475 33.16 140.515 32.52C141.581 31.88 142.568 30.8533 143.475 29.44C144.381 28.0267 145.088 26.1467 145.595 23.8L147.555 14.56H151.035L146.475 36H143.595L144.035 32.04H143.835C143.328 32.68 142.728 33.3467 142.035 34.04C141.368 34.7067 140.581 35.2667 139.675 35.72C138.795 36.1733 137.768 36.4 136.595 36.4ZM164.359 36L168.879 14.6H173.439L175.679 31.6H175.759L185.159 14.6H190.079L185.599 36H182.399L184.999 23.72C185.239 22.7067 185.479 21.6933 185.719 20.68C185.985 19.6667 186.225 18.7333 186.439 17.88H186.359L176.279 36H173.519L171.079 17.92H170.959C170.852 18.6667 170.705 19.5867 170.519 20.68C170.332 21.7467 170.132 22.7867 169.919 23.8L167.439 36H164.359ZM203.287 36L207.847 14.56H211.327L209.487 23.48H219.567L221.487 14.56H225.007L220.487 36H216.927L218.927 26.4H208.847L206.807 36H203.287ZM238.031 36.24C237.684 36.24 237.377 36.2133 237.111 36.16C236.817 36.1067 236.577 36.0533 236.391 36V33.2C236.524 33.2267 236.684 33.2533 236.871 33.28C237.031 33.3067 237.204 33.32 237.391 33.32C237.871 33.32 238.271 33.2267 238.591 33.04C238.937 32.8267 239.271 32.48 239.591 32C239.911 31.52 240.271 30.88 240.671 30.08C240.937 29.52 241.231 29 241.551 28.52C241.897 28.0133 242.284 27.5733 242.711 27.2C243.164 26.8 243.697 26.4933 244.311 26.28C243.457 26.0133 242.751 25.64 242.191 25.16C241.657 24.68 241.257 24.12 240.991 23.48C240.724 22.8133 240.591 22.1067 240.591 21.36C240.591 20.4 240.764 19.5067 241.111 18.68C241.484 17.8533 242.017 17.1333 242.711 16.52C243.431 15.9067 244.311 15.4267 245.351 15.08C246.417 14.7333 247.657 14.56 249.071 14.56H257.231L252.711 36H249.231L251.031 27.56H248.431C247.604 27.56 246.924 27.7067 246.391 28C245.857 28.2667 245.404 28.6667 245.031 29.2C244.657 29.7333 244.271 30.4133 243.871 31.24C243.364 32.3067 242.857 33.2133 242.351 33.96C241.871 34.7067 241.297 35.28 240.631 35.68C239.964 36.0533 239.097 36.24 238.031 36.24ZM248.151 24.56H251.671L253.151 17.56H248.511C247.551 17.56 246.737 17.72 246.071 18.04C245.431 18.3333 244.937 18.76 244.591 19.32C244.244 19.88 244.071 20.56 244.071 21.36C244.071 22.56 244.457 23.4 245.231 23.88C246.031 24.3333 247.004 24.56 248.151 24.56ZM270.32 36.24C269.973 36.24 269.667 36.2133 269.4 36.16C269.107 36.1067 268.867 36.0533 268.68 36V33.2C268.813 33.2267 268.973 33.2533 269.16 33.28C269.32 33.3067 269.493 33.32 269.68 33.32C270.16 33.32 270.56 33.2267 270.88 33.04C271.227 32.8267 271.56 32.48 271.88 32C272.2 31.52 272.56 30.88 272.96 30.08C273.227 29.52 273.52 29 273.84 28.52C274.187 28.0133 274.573 27.5733 275 27.2C275.453 26.8 275.987 26.4933 276.6 26.28C275.747 26.0133 275.04 25.64 274.48 25.16C273.947 24.68 273.547 24.12 273.28 23.48C273.013 22.8133 272.88 22.1067 272.88 21.36C272.88 20.4 273.053 19.5067 273.4 18.68C273.773 17.8533 274.307 17.1333 275 16.52C275.72 15.9067 276.6 15.4267 277.64 15.08C278.707 14.7333 279.947 14.56 281.36 14.56H289.52L285 36H281.52L283.32 27.56H280.72C279.893 27.56 279.213 27.7067 278.68 28C278.147 28.2667 277.693 28.6667 277.32 29.2C276.947 29.7333 276.56 30.4133 276.16 31.24C275.653 32.3067 275.147 33.2133 274.64 33.96C274.16 34.7067 273.587 35.28 272.92 35.68C272.253 36.0533 271.387 36.24 270.32 36.24ZM280.44 24.56H283.96L285.44 17.56H280.8C279.84 17.56 279.027 17.72 278.36 18.04C277.72 18.3333 277.227 18.76 276.88 19.32C276.533 19.88 276.36 20.56 276.36 21.36C276.36 22.56 276.747 23.4 277.52 23.88C278.32 24.3333 279.293 24.56 280.44 24.56Z" fill="#1669E4"/>
<path d="M97.4711 77.2266L102.071 55.6666H105.191L104.751 59.6266H104.791C105.298 58.9599 105.884 58.2932 106.551 57.6266C107.244 56.9599 108.044 56.3999 108.951 55.9466C109.858 55.4932 110.884 55.2666 112.031 55.2666C113.178 55.2666 114.164 55.4799 114.991 55.9066C115.818 56.3332 116.444 56.9466 116.871 57.7466C117.324 58.5466 117.551 59.5199 117.551 60.6666C117.551 61.2799 117.498 61.9066 117.391 62.5466C117.311 63.1866 117.218 63.7466 117.111 64.2266L114.271 77.2266H110.511L113.391 63.7466C113.524 63.1332 113.618 62.6266 113.671 62.2266C113.751 61.7999 113.791 61.3999 113.791 61.0266C113.791 60.1732 113.564 59.5332 113.111 59.1066C112.658 58.6799 111.978 58.4666 111.071 58.4666C110.191 58.4666 109.231 58.7732 108.191 59.3866C107.178 59.9999 106.218 60.9999 105.311 62.3866C104.431 63.7732 103.738 65.6399 103.231 67.9866L101.231 77.2266H97.4711ZM118.395 86.8266L124.955 55.7866H127.835L127.355 59.7866H127.515C128.155 58.9866 128.835 58.2666 129.555 57.6266C130.275 56.9599 131.062 56.4266 131.915 56.0266C132.769 55.6266 133.689 55.4266 134.675 55.4266C135.822 55.4266 136.822 55.7066 137.675 56.2666C138.555 56.7999 139.235 57.6132 139.715 58.7066C140.222 59.7732 140.475 61.1199 140.475 62.7466C140.475 64.3199 140.315 65.8399 139.995 67.3066C139.702 68.7732 139.249 70.1332 138.635 71.3866C138.049 72.6132 137.329 73.7066 136.475 74.6666C135.649 75.5999 134.689 76.3332 133.595 76.8666C132.502 77.3732 131.315 77.6266 130.035 77.6266C129.075 77.6266 128.235 77.4532 127.515 77.1066C126.822 76.7599 126.235 76.3066 125.755 75.7466C125.275 75.1866 124.875 74.5866 124.555 73.9466H124.355C124.329 74.3732 124.262 74.9732 124.155 75.7466C124.049 76.4932 123.942 77.1066 123.835 77.5866L121.875 86.8266H118.395ZM129.755 74.7066C130.609 74.7066 131.395 74.4932 132.115 74.0666C132.862 73.6132 133.529 72.9999 134.115 72.2266C134.702 71.4266 135.195 70.5199 135.595 69.5066C136.022 68.4666 136.342 67.3732 136.555 66.2266C136.769 65.0532 136.875 63.8666 136.875 62.6666C136.875 61.2266 136.582 60.1466 135.995 59.4266C135.435 58.7066 134.595 58.3466 133.475 58.3466C132.889 58.3466 132.289 58.4932 131.675 58.7866C131.062 59.0799 130.462 59.5066 129.875 60.0666C129.289 60.5999 128.742 61.2399 128.235 61.9866C127.729 62.7332 127.275 63.5599 126.875 64.4666C126.502 65.3466 126.209 66.2932 125.995 67.3066C125.782 68.2932 125.675 69.3199 125.675 70.3866C125.675 71.6666 126.009 72.7066 126.675 73.5066C127.342 74.3066 128.369 74.7066 129.755 74.7066ZM149.599 77.6266C148.533 77.6266 147.586 77.4266 146.759 77.0266C145.959 76.6266 145.333 76.0266 144.879 75.2266C144.453 74.4266 144.239 73.4532 144.239 72.3066C144.239 71.6932 144.279 71.1199 144.359 70.5866C144.466 70.0266 144.573 69.4532 144.679 68.8666L147.479 55.7866H151.039L148.159 69.2666C148.053 69.8532 147.959 70.3599 147.879 70.7866C147.826 71.2132 147.799 71.5999 147.799 71.9466C147.799 72.7999 148.013 73.4799 148.439 73.9866C148.893 74.4666 149.613 74.7066 150.599 74.7066C151.506 74.7066 152.479 74.3866 153.519 73.7466C154.586 73.1066 155.573 72.0799 156.479 70.6666C157.386 69.2532 158.093 67.3732 158.599 65.0266L160.559 55.7866H164.039L159.479 77.2266H156.599L157.039 73.2666H156.839C156.333 73.9066 155.733 74.5732 155.039 75.2666C154.373 75.9332 153.586 76.4932 152.679 76.9466C151.799 77.3999 150.773 77.6266 149.599 77.6266ZM165.923 77.2266L170.483 55.7866H173.963L172.123 64.7066H182.203L184.123 55.7866H187.643L183.123 77.2266H179.563L181.563 67.6266H171.483L169.443 77.2266H165.923ZM205.747 77.5066C205.213 77.3466 204.773 77.1066 204.427 76.7866C204.08 76.4666 203.827 76.0266 203.667 75.4666C203.507 74.8799 203.427 74.1732 203.427 73.3466H203.267C202.76 74.0399 202.16 74.7199 201.467 75.3866C200.8 76.0532 200.013 76.5999 199.107 77.0266C198.2 77.4266 197.173 77.6266 196.027 77.6266C194.933 77.6266 193.973 77.4266 193.147 77.0266C192.347 76.6266 191.72 76.0266 191.267 75.2266C190.84 74.4266 190.627 73.4532 190.627 72.3066C190.627 71.6932 190.667 71.1199 190.747 70.5866C190.853 70.0266 190.96 69.4532 191.067 68.8666L193.867 55.7866H197.427L194.547 69.2666C194.44 69.8532 194.347 70.3599 194.267 70.7866C194.213 71.2132 194.187 71.5999 194.187 71.9466C194.187 72.7999 194.4 73.4799 194.827 73.9866C195.28 74.4666 196 74.7066 196.987 74.7066C197.893 74.7066 198.867 74.3866 199.907 73.7466C200.973 73.1066 201.96 72.0799 202.867 70.6666C203.773 69.2532 204.48 67.3732 204.987 65.0266L206.947 55.7866H210.427L207.227 70.9066C207.12 71.4132 207.04 71.8532 206.987 72.2266C206.933 72.5999 206.907 72.9466 206.907 73.2666C206.907 73.7199 207.027 74.0932 207.267 74.3866C207.533 74.6532 207.92 74.7866 208.427 74.7866C208.64 74.7866 208.88 74.7599 209.147 74.7066C209.413 74.6532 209.68 74.5866 209.947 74.5066L207.707 84.6666H204.147L205.747 77.5066ZM221.574 77.6266C219.921 77.6266 218.507 77.3066 217.334 76.6666C216.187 75.9999 215.307 75.0666 214.694 73.8666C214.107 72.6399 213.814 71.1999 213.814 69.5466C213.814 67.8399 214.054 66.1599 214.534 64.5066C215.041 62.8266 215.761 61.3066 216.694 59.9466C217.627 58.5599 218.747 57.4532 220.054 56.6266C221.387 55.7999 222.881 55.3866 224.534 55.3866C226.561 55.3866 228.081 55.8266 229.094 56.7066C230.134 57.5866 230.654 58.8132 230.654 60.3866C230.654 61.4266 230.414 62.4132 229.934 63.3466C229.454 64.2532 228.707 65.0532 227.694 65.7466C226.681 66.4399 225.387 66.9866 223.814 67.3866C222.241 67.7599 220.347 67.9466 218.134 67.9466H217.454C217.427 68.1866 217.401 68.4399 217.374 68.7066C217.374 68.9732 217.374 69.2132 217.374 69.4266C217.374 71.0532 217.774 72.3466 218.574 73.3066C219.374 74.2399 220.587 74.7066 222.214 74.7066C223.227 74.7066 224.187 74.5599 225.094 74.2666C226.001 73.9732 226.987 73.5732 228.054 73.0666V76.0666C227.041 76.5199 226.041 76.8932 225.054 77.1866C224.094 77.4799 222.934 77.6266 221.574 77.6266ZM218.254 65.1066C219.854 65.1066 221.334 64.9732 222.694 64.7066C224.054 64.4132 225.147 63.9466 225.974 63.3066C226.801 62.6399 227.214 61.7599 227.214 60.6666C227.214 59.9732 226.974 59.4132 226.494 58.9866C226.041 58.5332 225.321 58.3066 224.334 58.3066C223.481 58.3066 222.641 58.5732 221.814 59.1066C220.987 59.6399 220.241 60.4132 219.574 61.4266C218.907 62.4399 218.374 63.6666 217.974 65.1066H218.254ZM241.335 77.6266C239.762 77.6266 238.375 77.3332 237.175 76.7466C235.975 76.1599 235.042 75.2799 234.375 74.1066C233.708 72.9066 233.375 71.4132 233.375 69.6266C233.375 68.0799 233.535 66.6132 233.855 65.2266C234.202 63.8132 234.695 62.5066 235.335 61.3066C235.975 60.1066 236.748 59.0666 237.655 58.1866C238.562 57.3066 239.588 56.6266 240.735 56.1466C241.908 55.6399 243.188 55.3866 244.575 55.3866C245.508 55.3866 246.442 55.4799 247.375 55.6666C248.308 55.8532 249.148 56.1066 249.895 56.4266L248.895 59.3466C248.362 59.1066 247.722 58.8799 246.975 58.6666C246.255 58.4532 245.468 58.3466 244.615 58.3466C243.708 58.3466 242.855 58.5466 242.055 58.9466C241.282 59.3199 240.575 59.8532 239.935 60.5466C239.322 61.2399 238.788 62.0666 238.335 63.0266C237.908 63.9599 237.575 64.9866 237.335 66.1066C237.095 67.1999 236.975 68.3599 236.975 69.5866C236.975 70.6532 237.162 71.5732 237.535 72.3466C237.908 73.1199 238.442 73.7066 239.135 74.1066C239.855 74.5066 240.708 74.7066 241.695 74.7066C242.628 74.7066 243.508 74.5732 244.335 74.3066C245.188 74.0399 246.028 73.7332 246.855 73.3866V76.3466C246.108 76.7199 245.268 77.0266 244.335 77.2666C243.428 77.5066 242.428 77.6266 241.335 77.6266ZM259.06 77.6266C257.487 77.6266 256.1 77.3332 254.9 76.7466C253.7 76.1599 252.767 75.2799 252.1 74.1066C251.433 72.9066 251.1 71.4132 251.1 69.6266C251.1 68.0799 251.26 66.6132 251.58 65.2266C251.927 63.8132 252.42 62.5066 253.06 61.3066C253.7 60.1066 254.473 59.0666 255.38 58.1866C256.287 57.3066 257.313 56.6266 258.46 56.1466C259.633 55.6399 260.913 55.3866 262.3 55.3866C263.233 55.3866 264.167 55.4799 265.1 55.6666C266.033 55.8532 266.873 56.1066 267.62 56.4266L266.62 59.3466C266.087 59.1066 265.447 58.8799 264.7 58.6666C263.98 58.4532 263.193 58.3466 262.34 58.3466C261.433 58.3466 260.58 58.5466 259.78 58.9466C259.007 59.3199 258.3 59.8532 257.66 60.5466C257.047 61.2399 256.513 62.0666 256.06 63.0266C255.633 63.9599 255.3 64.9866 255.06 66.1066C254.82 67.1999 254.7 68.3599 254.7 69.5866C254.7 70.6532 254.887 71.5732 255.26 72.3466C255.633 73.1199 256.167 73.7066 256.86 74.1066C257.58 74.5066 258.433 74.7066 259.42 74.7066C260.353 74.7066 261.233 74.5732 262.06 74.3066C262.913 74.0399 263.753 73.7332 264.58 73.3866V76.3466C263.833 76.7199 262.993 77.0266 262.06 77.2666C261.153 77.5066 260.153 77.6266 259.06 77.6266ZM274.625 77.6266C273.478 77.6266 272.465 77.3599 271.585 76.8266C270.732 76.2666 270.052 75.4399 269.545 74.3466C269.065 73.2532 268.825 71.9066 268.825 70.3066C268.825 68.7066 268.985 67.1732 269.305 65.7066C269.652 64.2132 270.132 62.8399 270.745 61.5866C271.358 60.3332 272.092 59.2532 272.945 58.3466C273.825 57.4132 274.798 56.6932 275.865 56.1866C276.958 55.6532 278.118 55.3866 279.345 55.3866C280.278 55.3866 281.092 55.5599 281.785 55.9066C282.505 56.2532 283.105 56.7066 283.585 57.2666C284.065 57.8266 284.452 58.4399 284.745 59.1066H284.945L286.225 55.7866H288.905L284.345 77.2266H281.545L282.065 73.2666H281.905C281.292 74.0399 280.612 74.7599 279.865 75.4266C279.118 76.0932 278.305 76.6266 277.425 77.0266C276.572 77.4266 275.638 77.6266 274.625 77.6266ZM275.785 74.7066C276.772 74.7066 277.732 74.3466 278.665 73.6266C279.625 72.9066 280.492 71.9332 281.265 70.7066C282.038 69.4799 282.625 68.1066 283.025 66.5866C283.238 65.8132 283.372 65.1066 283.425 64.4666C283.505 63.7999 283.545 63.1866 283.545 62.6266C283.545 61.3732 283.198 60.3466 282.505 59.5466C281.812 58.7466 280.878 58.3466 279.705 58.3466C278.878 58.3466 278.092 58.5599 277.345 58.9866C276.625 59.4132 275.958 60.0132 275.345 60.7866C274.732 61.5332 274.212 62.4132 273.785 63.4266C273.358 64.4399 273.025 65.5466 272.785 66.7466C272.545 67.9199 272.425 69.1332 272.425 70.3866C272.425 71.8266 272.718 72.9066 273.305 73.6266C273.892 74.3466 274.718 74.7066 275.785 74.7066Z" fill="#1669E4"/>
<path d="M40.413 10C35.0687 10 30.7757 13.5404 30.7757 17.9414C30.7757 22.338 35.0687 25.8756 40.413 25.8756C45.7574 25.8756 50.0504 22.338 50.0504 17.9414C50.0504 13.5404 45.7574 10 40.413 10ZM29.076 28.1714C28.0772 28.1714 27.131 28.2291 26.2724 28.3735C22.7855 28.9511 20.2973 30.626 18.7203 33.4849C17.0732 36.4593 16.6001 40.791 17.704 46.1911L18.7553 47.043C21.1734 49.0356 25.0809 50.133 29.0235 50.133C32.7207 50.133 36.4004 49.1655 38.836 47.3896V30.3083C35.1563 28.8933 31.8621 28.2147 29.076 28.1714V28.1714ZM51.75 28.1714C48.964 28.2147 45.6698 28.8933 41.99 30.3083V47.3896C44.4257 49.1655 48.1054 50.133 51.8026 50.133C55.7451 50.133 59.6526 49.0356 62.0707 47.043L63.1221 46.1911C64.226 40.791 63.7529 36.4593 62.1058 33.4849C60.5288 30.626 58.0406 28.9511 54.5536 28.3735C53.695 28.2291 52.7488 28.1714 51.75 28.1714V28.1714ZM15.1107 30.2506H15.0756C9.81889 30.3516 5.40325 31.9977 2.77488 34.8855C0.444404 37.4556 -0.641986 41.0798 0.391837 45.859C0.549538 46.5954 0.759807 47.3751 1.04017 48.1693C5.33316 50.8405 10.5548 50.8549 14.8653 48.2126C13.2533 41.7439 13.6563 36.3871 15.8466 32.4164C16.2671 31.6511 16.7578 30.9436 17.3185 30.2939C16.8103 30.265 16.3022 30.2506 15.8116 30.2506H15.1282C15.1107 30.2506 15.1107 30.2361 15.1107 30.2506V30.2506ZM65.7154 30.2506C65.7154 30.2361 65.7154 30.2506 65.6979 30.2506H65.0145C64.5239 30.2506 64.0157 30.265 63.5076 30.2939C64.0683 30.9436 64.5589 31.6511 64.9795 32.4164C67.1698 36.3871 67.5728 41.7439 65.9607 48.2126C70.2537 50.8549 75.4929 50.8405 79.7859 48.1693C80.0487 47.3751 80.2765 46.5954 80.4342 45.859C81.468 41.0798 80.3816 37.4556 78.0512 34.8855C75.4228 31.9977 71.0072 30.3516 65.7504 30.2506H65.7154V30.2506ZM18.8254 50.4073C20.0345 54.1758 21.9269 58.3343 24.5903 62.8392H34.8584L38.836 54.6523V50.6094C35.9623 52.0533 32.4754 52.732 29.0235 52.732C25.3963 52.732 21.7517 51.9811 18.8254 50.4073ZM62.0006 50.4073C59.0744 51.9811 55.4297 52.732 51.8026 52.732C48.3507 52.732 44.8637 52.0533 41.99 50.6094V54.6523L45.9676 62.8392H56.2358C58.8992 58.3343 60.7916 54.1758 62.0006 50.4073ZM15.6363 50.8982C11.6062 52.9052 6.85761 53.2229 2.58214 51.8223C4.26429 55.1433 6.80504 58.8252 10.3796 62.8392H21.0683C18.6151 58.5653 16.8279 54.5801 15.6363 50.8982ZM65.1897 50.8982C63.9982 54.5801 62.2109 58.5653 59.7578 62.8392H70.4464C74.021 58.8252 76.5618 55.1433 78.2439 51.8223C73.986 53.2229 69.2199 52.9052 65.1897 50.8982ZM40.413 58.392L36.5406 66.3912L40.413 72.7876L44.2855 66.3912L40.413 58.392ZM11.5939 65.4382L13.6037 72.0801H19.7891L15.759 68.7591L19.7891 65.4382H11.5939ZM27.4114 65.4382L30.3201 67.8351L31.424 68.7591L27.3939 72.0801H36.453L33.0711 66.5067L33.5968 65.4382H27.4114ZM47.2292 65.4382L47.4921 65.9724L47.7549 66.5067L44.3731 72.0801H53.4322L49.402 68.7591L53.4322 65.4382H47.2292ZM61.0544 65.4382L63.9631 67.8351L65.0671 68.7591L61.0369 72.0801H67.2223L69.2374 65.4382H61.0544ZM23.5915 65.9724L20.2097 68.7591L23.5915 71.5459L26.9733 68.7591L23.5915 65.9724ZM57.2345 65.9724L53.8527 68.7591L57.2345 71.5459L60.6164 68.7591L57.2345 65.9724Z" fill="#1669E4"/>
</svg>
